<svg width="308" height="309" viewBox="0 0 308 309" fill="none" xmlns="http://www.w3.org/2000/svg">
<g filter="url(#filter0_d_43_283)">
<ellipse cx="165.111" cy="140.217" rx="138.889" ry="140.217" fill="#DD1C1A"/>
</g>
<g filter="url(#filter1_d_43_283)">
<ellipse cx="142.889" cy="160.783" rx="138.889" ry="140.217" fill="#FF9F1C"/>
</g>
<g filter="url(#filter2_d_43_283)">
<ellipse cx="153.537" cy="149.098" rx="136.574" ry="137.88" fill="#07A0C3"/>
</g>
<g filter="url(#filter3_d_43_283)">
<path d="M64.5892 150.515L81.6532 156.923C81.6532 159.947 81.4372 162.083 81.0052 163.331L56.3812 153.323V147.923L81.0052 136.691C81.4372 137.891 81.6532 140.027 81.6532 143.099L64.5892 150.515ZM115.284 143.459C115.284 145.475 114.636 148.955 113.34 153.899C112.044 158.795 111.396 162.011 111.396 163.547C111.396 165.035 111.612 165.779 112.044 165.779C112.332 165.779 113.436 165.323 115.356 164.411L116.22 163.979L117.444 166.499C117.012 166.883 116.436 167.363 115.716 167.939C114.996 168.515 113.652 169.307 111.684 170.315C109.716 171.275 107.892 171.755 106.212 171.755C104.532 171.755 103.212 171.251 102.252 170.243C101.292 169.187 100.812 167.795 100.812 166.067C100.812 164.291 101.412 161.171 102.612 156.707C103.812 152.195 104.412 149.267 104.412 147.923C104.412 145.907 103.788 144.011 102.54 142.235L101.892 141.371L101.964 140.435C104.508 139.715 108.636 139.355 114.348 139.355C114.972 140.075 115.284 141.443 115.284 143.459ZM107.076 131.507C106.116 130.547 105.636 129.275 105.636 127.691C105.636 126.107 106.284 124.715 107.58 123.515C108.924 122.315 110.46 121.715 112.188 121.715C113.916 121.715 115.26 122.195 116.22 123.155C117.18 124.115 117.66 125.387 117.66 126.971C117.66 128.507 116.964 129.875 115.572 131.075C114.228 132.275 112.716 132.875 111.036 132.875C109.356 132.875 108.036 132.419 107.076 131.507ZM148.941 156.779C148.941 161.387 147.189 165.035 143.685 167.723C140.181 170.411 135.933 171.755 130.941 171.755C127.581 171.755 124.797 170.915 122.589 169.235C120.429 167.507 119.229 166.043 118.989 164.843C119.517 163.259 120.645 161.483 122.373 159.515C124.101 157.547 125.661 156.347 127.053 155.915C129.501 157.499 131.781 161.027 133.893 166.499C137.013 166.403 138.573 164.699 138.573 161.387C138.573 159.563 137.829 157.331 136.341 154.691C134.901 152.003 133.317 149.507 131.589 147.203C129.861 144.851 128.253 142.235 126.765 139.355C125.325 136.427 124.605 133.835 124.605 131.579C124.605 127.931 126.069 125.051 128.997 122.939C131.973 120.827 135.309 119.771 139.005 119.771C142.701 119.771 145.557 120.563 147.573 122.147C149.637 123.731 150.669 125.531 150.669 127.547C150.669 129.563 149.901 131.627 148.365 133.739C146.829 135.851 145.293 137.531 143.757 138.779L141.453 140.651C142.029 141.419 142.725 142.403 143.541 143.603C144.357 144.803 145.461 146.843 146.853 149.723C148.245 152.603 148.941 154.955 148.941 156.779ZM143.397 133.163C144.069 132.539 144.669 131.795 145.197 130.931C145.725 130.019 145.989 129.083 145.989 128.123C145.989 127.115 145.413 126.275 144.261 125.603C143.109 124.931 141.717 124.595 140.085 124.595C138.501 124.595 137.157 124.979 136.053 125.747C134.997 126.467 134.469 127.355 134.469 128.411C134.469 129.419 134.805 130.619 135.477 132.011C136.197 133.355 136.893 134.483 137.565 135.395L138.645 136.763C139.125 136.523 139.869 136.019 140.877 135.251C141.933 134.483 142.773 133.787 143.397 133.163ZM174.925 171.755C172.333 171.755 169.045 171.275 165.061 170.315C162.565 170.987 160.237 171.323 158.077 171.323C155.917 171.323 154.669 171.251 154.333 171.107C154.669 168.227 156.085 161.147 158.581 149.867C161.125 138.539 162.397 131.435 162.397 128.555C162.397 127.979 162.085 127.211 161.461 126.251C160.837 125.291 160.213 124.475 159.589 123.803L158.653 122.795L158.869 121.715C165.157 120.419 171.925 119.771 179.173 119.771C183.157 119.771 186.421 120.731 188.965 122.651C191.557 124.523 192.853 127.163 192.853 130.571C192.853 137.147 188.845 141.707 180.829 144.251C184.045 144.635 186.733 145.859 188.893 147.923C191.101 149.939 192.205 152.795 192.205 156.491C192.205 161.003 190.573 164.675 187.309 167.507C184.045 170.339 179.917 171.755 174.925 171.755ZM173.629 146.195C172.285 146.195 171.085 146.315 170.029 146.555C167.965 155.675 166.645 162.035 166.069 165.635C167.269 166.451 169.141 166.859 171.685 166.859C174.277 166.859 176.485 165.851 178.309 163.835C180.133 161.771 181.045 158.819 181.045 154.979C181.045 149.123 178.573 146.195 173.629 146.195ZM177.661 124.235C175.837 124.235 174.757 124.403 174.421 124.739C173.749 129.059 172.645 134.723 171.109 141.731C173.029 141.731 174.373 141.611 175.141 141.371C175.909 141.131 176.581 140.819 177.157 140.435C177.781 140.051 178.477 139.451 179.245 138.635C180.925 136.859 181.765 134.027 181.765 130.139C181.765 126.203 180.397 124.235 177.661 124.235ZM235.55 119.411C227.63 139.523 220.214 159.323 213.302 178.811C211.43 178.811 209.582 177.899 207.758 176.075C216.062 153.035 223.358 133.355 229.646 117.035C231.806 117.371 233.774 118.163 235.55 119.411ZM238.094 156.923L255.158 150.515L238.094 143.099C238.094 140.651 238.406 138.563 239.03 136.835L263.366 147.923V153.323L238.742 163.331C238.31 162.083 238.094 159.947 238.094 156.923Z" fill="white"/>
</g>
<defs>
<filter id="filter0_d_43_283" x="22.2222" y="0" width="285.778" height="288.435" filterUnits="userSpaceOnUse" color-interpolation-filters="sRGB">
<feFlood flood-opacity="0" result="BackgroundImageFix"/>
<feColorMatrix in="SourceAlpha" type="matrix" values="0 0 0 0 0 0 0 0 0 0 0 0 0 0 0 0 0 0 127 0" result="hardAlpha"/>
<feOffset dy="4"/>
<feGaussianBlur stdDeviation="2"/>
<feComposite in2="hardAlpha" operator="out"/>
<feColorMatrix type="matrix" values="0 0 0 0 0 0 0 0 0 0 0 0 0 0 0 0 0 0 0.25 0"/>
<feBlend mode="normal" in2="BackgroundImageFix" result="effect1_dropShadow_43_283"/>
<feBlend mode="normal" in="SourceGraphic" in2="effect1_dropShadow_43_283" result="shape"/>
</filter>
<filter id="filter1_d_43_283" x="0" y="20.5652" width="285.778" height="288.435" filterUnits="userSpaceOnUse" color-interpolation-filters="sRGB">
<feFlood flood-opacity="0" result="BackgroundImageFix"/>
<feColorMatrix in="SourceAlpha" type="matrix" values="0 0 0 0 0 0 0 0 0 0 0 0 0 0 0 0 0 0 127 0" result="hardAlpha"/>
<feOffset dy="4"/>
<feGaussianBlur stdDeviation="2"/>
<feComposite in2="hardAlpha" operator="out"/>
<feColorMatrix type="matrix" values="0 0 0 0 0 0 0 0 0 0 0 0 0 0 0 0 0 0 0.25 0"/>
<feBlend mode="normal" in2="BackgroundImageFix" result="effect1_dropShadow_43_283"/>
<feBlend mode="normal" in="SourceGraphic" in2="effect1_dropShadow_43_283" result="shape"/>
</filter>
<filter id="filter2_d_43_283" x="12.963" y="11.2174" width="281.148" height="283.761" filterUnits="userSpaceOnUse" color-interpolation-filters="sRGB">
<feFlood flood-opacity="0" result="BackgroundImageFix"/>
<feColorMatrix in="SourceAlpha" type="matrix" values="0 0 0 0 0 0 0 0 0 0 0 0 0 0 0 0 0 0 127 0" result="hardAlpha"/>
<feOffset dy="4"/>
<feGaussianBlur stdDeviation="2"/>
<feComposite in2="hardAlpha" operator="out"/>
<feColorMatrix type="matrix" values="0 0 0 0 0 0 0 0 0 0 0 0 0 0 0 0 0 0 0.25 0"/>
<feBlend mode="normal" in2="BackgroundImageFix" result="effect1_dropShadow_43_283"/>
<feBlend mode="normal" in="SourceGraphic" in2="effect1_dropShadow_43_283" result="shape"/>
</filter>
<filter id="filter3_d_43_283" x="52.3812" y="117.035" width="214.985" height="69.776" filterUnits="userSpaceOnUse" color-interpolation-filters="sRGB">
<feFlood flood-opacity="0" result="BackgroundImageFix"/>
<feColorMatrix in="SourceAlpha" type="matrix" values="0 0 0 0 0 0 0 0 0 0 0 0 0 0 0 0 0 0 127 0" result="hardAlpha"/>
<feOffset dy="4"/>
<feGaussianBlur stdDeviation="2"/>
<feComposite in2="hardAlpha" operator="out"/>
<feColorMatrix type="matrix" values="0 0 0 0 0 0 0 0 0 0 0 0 0 0 0 0 0 0 0.25 0"/>
<feBlend mode="normal" in2="BackgroundImageFix" result="effect1_dropShadow_43_283"/>
<feBlend mode="normal" in="SourceGraphic" in2="effect1_dropShadow_43_283" result="shape"/>
</filter>
</defs>
</svg>
